<svg width="509" height="100" viewBox="0 0 509 100" fill="none" xmlns="http://www.w3.org/2000/svg">
<path d="M35.0713 93.3115C27.7326 93.3115 21.4179 91.7329 16.1273 88.5755C10.9219 85.4182 6.91125 81.1515 4.09525 75.7755C1.36458 70.3142 -0.000749826 64.1702 -0.000749826 57.3435C-0.000749826 49.6635 1.19392 42.4529 3.58325 35.7115C6.05792 28.9702 9.51392 23.0395 13.9513 17.9195C18.3886 12.7995 23.6793 8.78886 29.8232 5.88753C35.9673 2.90086 42.7086 1.40752 50.0473 1.40752C57.4713 1.40752 63.7859 2.98619 68.9913 6.14352C74.1966 9.21553 78.1646 13.4822 80.8953 18.9435C83.7113 24.3195 85.1193 30.4209 85.1193 37.2475C85.1193 44.9275 83.8819 52.1382 81.4073 58.8795C79.0179 65.6209 75.6046 71.5942 71.1673 76.7995C66.7299 81.9195 61.4393 85.9729 55.2953 88.9595C49.2366 91.8609 42.4953 93.3115 35.0713 93.3115ZM47.3593 99.1995L40.8313 82.9435L30.0793 61.9515H48.7673L55.8073 77.9515L67.3273 99.1995H47.3593ZM37.8873 74.6235C41.7273 74.6235 45.2259 73.6849 48.3833 71.8075C51.6259 69.9302 54.4419 67.3702 56.8313 64.1275C59.2206 60.7995 61.0553 57.0022 62.3353 52.7355C63.6153 48.3835 64.2553 43.7329 64.2553 38.7835C64.2553 33.3222 62.9326 28.8422 60.2873 25.3435C57.7273 21.8449 53.3753 20.0955 47.2313 20.0955C43.3913 20.0955 39.8499 21.0342 36.6073 22.9115C33.4499 24.7889 30.6766 27.3915 28.2873 30.7195C25.8979 33.9622 24.0633 37.7595 22.7833 42.1115C21.5033 46.3782 20.8633 50.9862 20.8633 55.9355C20.8633 61.3969 22.1433 65.8769 24.7033 69.3755C27.3486 72.8742 31.7433 74.6235 37.8873 74.6235ZM110.663 93.3115C104.861 93.3115 100.21 91.3062 96.7113 87.2955C93.2126 83.2849 91.4633 78.1649 91.4633 71.9355C91.4633 70.5702 91.5059 69.2049 91.5913 67.8395C91.7619 66.4742 92.0179 65.0662 92.3593 63.6155L100.935 23.6795H120.007L111.687 62.5915C111.517 63.4449 111.389 64.2129 111.303 64.8955C111.218 65.5782 111.175 66.2609 111.175 66.9435C111.175 70.1009 111.986 72.4902 113.607 74.1115C115.314 75.7329 117.575 76.5435 120.391 76.5435C123.805 76.5435 126.834 75.3489 129.479 72.9595C132.21 70.5702 134.045 67.1142 134.983 62.5915L143.303 23.6795H162.375L147.911 91.5195H128.839L133.959 67.1995L138.311 62.5915C136.946 69.0769 134.898 74.6235 132.167 79.2315C129.522 83.8395 126.365 87.3382 122.695 89.7275C119.026 92.1169 115.015 93.3115 110.663 93.3115ZM192.578 93.3115C186.946 93.3115 182.04 92.1595 177.858 89.8555C173.677 87.4662 170.434 84.1809 168.13 79.9995C165.826 75.8182 164.674 71.0822 164.674 65.7915C164.674 59.8182 165.656 54.1862 167.618 48.8955C169.581 43.6049 172.354 38.9542 175.938 34.9435C179.522 30.8475 183.746 27.6475 188.61 25.3435C193.474 23.0395 198.808 21.8875 204.61 21.8875C210.328 21.8875 215.234 23.0822 219.33 25.4715C223.512 27.7755 226.754 31.0182 229.058 35.1995C231.362 39.2955 232.514 44.0315 232.514 49.4075C232.514 55.3809 231.533 61.0129 229.57 66.3035C227.608 71.5942 224.834 76.2875 221.25 80.3835C217.666 84.3942 213.442 87.5515 208.578 89.8555C203.714 92.1595 198.381 93.3115 192.578 93.3115ZM194.754 76.2875C198.082 76.2875 201.112 75.1782 203.842 72.9595C206.573 70.6555 208.749 67.6262 210.37 63.8715C211.992 60.1169 212.802 56.0209 212.802 51.5835C212.802 47.8289 211.949 44.7995 210.242 42.4955C208.536 40.1062 205.933 38.9115 202.434 38.9115C199.106 38.9115 196.077 40.0635 193.346 42.3675C190.616 44.5862 188.44 47.5729 186.818 51.3275C185.197 54.9969 184.386 59.0929 184.386 63.6155C184.386 67.3702 185.24 70.4422 186.946 72.8315C188.738 75.1355 191.341 76.2875 194.754 76.2875ZM276.696 93.3115C269.358 93.3115 263.043 91.7329 257.752 88.5755C252.547 85.4182 248.536 81.1515 245.72 75.7755C242.99 70.3142 241.624 64.1702 241.624 57.3435C241.624 49.6635 242.819 42.4529 245.208 35.7115C247.683 28.9702 251.139 23.0395 255.576 17.9195C260.014 12.7995 265.304 8.78886 271.448 5.88753C277.592 2.90086 284.334 1.40752 291.672 1.40752C299.096 1.40752 305.411 2.98619 310.616 6.14352C315.822 9.21553 319.79 13.4822 322.52 18.9435C325.336 24.3195 326.744 30.4209 326.744 37.2475C326.744 44.9275 325.507 52.1382 323.032 58.8795C320.643 65.6209 317.23 71.5942 312.792 76.7995C308.355 81.9195 303.064 85.9729 296.92 88.9595C290.862 91.8609 284.12 93.3115 276.696 93.3115ZM279.512 74.6235C283.352 74.6235 286.851 73.6849 290.008 71.8075C293.251 69.9302 296.067 67.3702 298.456 64.1275C300.846 60.7995 302.68 57.0022 303.96 52.7355C305.24 48.3835 305.88 43.7329 305.88 38.7835C305.88 33.3222 304.558 28.8422 301.912 25.3435C299.352 21.8449 295 20.0955 288.856 20.0955C285.016 20.0955 281.475 21.0342 278.232 22.9115C275.075 24.7889 272.302 27.3915 269.912 30.7195C267.523 33.9622 265.688 37.7595 264.408 42.1115C263.128 46.3782 262.488 50.9862 262.488 55.9355C262.488 61.3969 263.768 65.8769 266.328 69.3755C268.974 72.8742 273.368 74.6235 279.512 74.6235ZM356 93.3115C347.894 93.3115 341.408 91.6475 336.544 88.3195C331.68 84.9915 328.822 80.0849 327.968 73.5995L346.784 68.0955C347.723 71.6795 349.131 74.3249 351.008 76.0315C352.886 77.6529 355.36 78.4635 358.432 78.4635C362.187 78.4635 364.704 77.8662 365.984 76.6715C367.35 75.4769 368.032 74.1542 368.032 72.7035C368.032 70.9969 367.264 69.6315 365.728 68.6075C364.192 67.5835 362.187 66.6875 359.712 65.9195C357.323 65.1515 354.763 64.2982 352.032 63.3595C349.387 62.4209 346.827 61.1835 344.352 59.6475C341.963 58.1115 340 56.1489 338.464 53.7595C336.928 51.2849 336.16 48.1702 336.16 44.4155C336.16 40.5755 337.398 36.9489 339.872 33.5355C342.347 30.0369 345.888 27.2209 350.496 25.0875C355.104 22.9542 360.608 21.8875 367.008 21.8875C374.262 21.8875 380.107 23.4235 384.544 26.4955C388.982 29.5675 391.84 34.0049 393.12 39.8075L374.688 45.1835C373.835 42.1969 372.64 40.0209 371.104 38.6555C369.568 37.2902 367.264 36.6075 364.192 36.6075C360.864 36.6075 358.518 37.1195 357.152 38.1435C355.872 39.1675 355.232 40.3622 355.232 41.7275C355.232 43.2635 356 44.5435 357.536 45.5675C359.158 46.5062 361.206 47.3595 363.68 48.1275C366.24 48.8955 368.928 49.7489 371.744 50.6875C374.56 51.6262 377.206 52.9062 379.68 54.5275C382.24 56.0635 384.288 58.0689 385.824 60.5435C387.446 63.0182 388.256 66.2182 388.256 70.1435C388.256 74.4102 386.976 78.3355 384.416 81.9195C381.856 85.4182 378.144 88.1915 373.28 90.2395C368.502 92.2875 362.742 93.3115 356 93.3115ZM393.846 91.5195L413.302 -0.000473022H432.374L422.134 47.9995L417.91 52.6075C419.276 46.0369 421.281 40.4902 423.926 35.9675C426.657 31.3595 429.857 27.8609 433.526 25.4715C437.281 23.0822 441.292 21.8875 445.558 21.8875C451.361 21.8875 455.969 23.8929 459.382 27.9035C462.881 31.8289 464.63 36.9489 464.63 43.2635C464.63 44.6289 464.545 45.9942 464.374 47.3595C464.289 48.7249 464.076 50.1329 463.734 51.5835L455.286 91.5195H436.214L444.534 52.6075C444.705 51.6689 444.833 50.8582 444.918 50.1755C445.004 49.4929 445.046 48.8529 445.046 48.2555C445.046 45.0982 444.193 42.7089 442.486 41.0875C440.865 39.4662 438.646 38.6555 435.83 38.6555C432.417 38.6555 429.345 39.8502 426.614 42.2395C423.969 44.6289 422.177 48.0849 421.238 52.6075L412.918 91.5195H393.846ZM479.854 59.9035L483.31 27.2635L488.43 3.19952H508.398L503.278 27.2635L492.91 59.9035H479.854ZM480.878 93.3115C477.636 93.3115 475.076 92.4155 473.198 90.6235C471.321 88.7462 470.382 86.2715 470.382 83.1995C470.382 79.4449 471.534 76.4582 473.838 74.2395C476.228 72.0209 479.086 70.9115 482.414 70.9115C485.742 70.9115 488.345 71.8502 490.222 73.7275C492.1 75.6049 493.038 78.0795 493.038 81.1515C493.038 84.8209 491.844 87.7649 489.454 89.9835C487.15 92.2022 484.292 93.3115 480.878 93.3115Z" fill="#FF9900"/>
</svg>
